<?xml version="1.0" encoding="utf-8"?>
<!-- Generator: Adobe Illustrator 23.0.3, SVG Export Plug-In . SVG Version: 6.00 Build 0)  -->
<svg version="1.1" id="Warstwa_1" xmlns="http://www.w3.org/2000/svg" xmlns:xlink="http://www.w3.org/1999/xlink" x="0px" y="0px"
	 viewBox="0 0 163 56" style="enable-background:new 0 0 163 56;" xml:space="preserve">
<style type="text/css">
	.st0{opacity:0.81;fill:#11B4BD;}
	.st1{opacity:0.15;fill:#11B4BD;}
	.st2{opacity:0.66;}
	.st3{fill:#FFFFFF;}
	.st4{fill:#C8D86C;}
	.st5{fill:#6BAD2E;}
	.st6{fill:#11B4BD;}
	.st7{fill:#009EE2;}
	.st8{fill:#059898;}
	.st9{fill:#004995;}
	.st10{fill:none;stroke:#004995;stroke-miterlimit:10;}
	.st11{opacity:0.49;fill:#545454;}
	.st12{fill:none;stroke:#004995;stroke-width:2;stroke-miterlimit:10;}
	.st13{fill:#EFEFEF;}
	.st14{fill:none;}
	.st15{fill:#545454;}
	.st16{fill:none;stroke:#004995;stroke-width:1.5;stroke-miterlimit:10;}
	.st17{fill:#004995;stroke:#545454;stroke-miterlimit:10;}
	.st18{fill:none;stroke:#545454;stroke-width:2;stroke-miterlimit:10;}
</style>
<g>
	<g>
		<g>
			<polygon class="st4" points="46.52,29.76 42.35,32.53 43.14,38.78 48.02,41.6 			"/>
			<polygon class="st5" points="28.91,46.08 23.89,49.9 23.89,55.53 33.4,48.31 			"/>
			<polygon class="st6" points="5.19,38.78 0.3,41.6 11.31,46.22 11,41.22 			"/>
			<polygon class="st7" points="5.71,23.28 4.91,17.03 10.72,14.59 14.66,16.8 14.66,11.62 11.04,9.59 0.03,14.21 1.54,26.05 
				14.38,33.47 14.38,37.31 18.87,34.72 18.87,30.88 			"/>
			<polygon class="st8" points="36.74,9.59 23.89,17.01 20.84,15.25 20.84,20.43 23.89,22.19 37.05,14.59 42.86,17.03 42.07,23.28 
				38.6,25.23 43.09,27.82 46.24,26.05 47.75,14.21 			"/>
			<polygon class="st9" points="24.16,0.28 14.66,7.5 14.66,22.34 11.06,24.42 15.55,27.01 19.15,24.93 19.15,9.73 24.16,5.92 
				29.18,9.73 29.18,14.03 33.67,11.44 33.67,7.5 			"/>
			<polygon class="st6" points="24.16,33.62 11,41.22 5.19,38.78 5.98,32.53 9.25,30.49 4.76,27.9 1.81,29.76 0.3,41.6 11.31,46.22 
				24.16,38.8 27.21,40.56 27.21,35.38 			"/>
			<polygon class="st4" points="46.52,29.76 33.67,22.34 33.67,18.5 29.18,21.09 29.18,24.93 42.35,32.53 43.14,38.78 37.33,41.22 
				33.4,38.94 33.4,44.12 37.01,46.22 48.02,41.6 			"/>
			<polygon class="st5" points="32.5,28.8 28.9,30.88 28.91,46.08 23.89,49.9 18.87,46.08 18.87,41.81 14.38,44.4 14.38,48.31 
				23.89,55.53 33.4,48.31 33.4,33.47 36.99,31.4 			"/>
		</g>
		<g>
			<path class="st9" d="M63.09,43.31h-4.83V22.63h4.83V43.31z"/>
			<path class="st9" d="M77.1,32.09c-0.13,0.16-0.26,0.29-0.38,0.38c-0.12,0.09-0.3,0.14-0.52,0.14c-0.22,0-0.41-0.05-0.59-0.16
				c-0.18-0.1-0.37-0.22-0.59-0.35c-0.22-0.13-0.47-0.24-0.77-0.35c-0.29-0.1-0.66-0.16-1.09-0.16c-0.54,0-1.01,0.1-1.4,0.3
				c-0.39,0.2-0.72,0.48-0.97,0.85c-0.25,0.37-0.44,0.82-0.57,1.36c-0.12,0.53-0.19,1.14-0.19,1.81c0,1.41,0.27,2.49,0.82,3.25
				c0.54,0.76,1.29,1.14,2.25,1.14c0.51,0,0.91-0.06,1.21-0.19c0.3-0.13,0.55-0.27,0.76-0.43c0.21-0.16,0.4-0.3,0.58-0.43
				c0.18-0.13,0.4-0.2,0.66-0.2c0.35,0,0.62,0.13,0.8,0.38l1.28,1.58c-0.45,0.52-0.93,0.94-1.43,1.27c-0.5,0.33-1.02,0.58-1.54,0.77
				c-0.53,0.18-1.05,0.31-1.58,0.38c-0.53,0.07-1.05,0.11-1.55,0.11c-0.9,0-1.76-0.17-2.58-0.51c-0.82-0.34-1.54-0.84-2.16-1.48
				c-0.62-0.65-1.11-1.45-1.48-2.39c-0.36-0.95-0.55-2.02-0.55-3.24c0-1.06,0.16-2.05,0.47-2.97c0.32-0.92,0.79-1.72,1.41-2.4
				c0.62-0.68,1.39-1.21,2.3-1.6c0.91-0.39,1.97-0.58,3.17-0.58c1.15,0,2.17,0.18,3.04,0.55c0.87,0.37,1.66,0.91,2.36,1.62
				L77.1,32.09z"/>
			<path class="st9" d="M83.6,36.74c0.14,1.23,0.52,2.12,1.12,2.68c0.61,0.55,1.39,0.83,2.34,0.83c0.51,0,0.95-0.06,1.32-0.18
				s0.7-0.26,0.99-0.41s0.55-0.29,0.8-0.41c0.24-0.12,0.49-0.18,0.76-0.18c0.35,0,0.62,0.13,0.8,0.38l1.28,1.58
				c-0.45,0.52-0.94,0.94-1.47,1.27c-0.52,0.33-1.06,0.58-1.62,0.77c-0.55,0.18-1.11,0.31-1.66,0.38c-0.55,0.07-1.08,0.11-1.58,0.11
				c-1.03,0-2-0.17-2.9-0.5c-0.9-0.34-1.69-0.84-2.37-1.5c-0.68-0.66-1.21-1.49-1.6-2.47c-0.39-0.98-0.59-2.13-0.59-3.43
				c0-0.98,0.17-1.92,0.5-2.8c0.34-0.88,0.82-1.65,1.45-2.31c0.63-0.66,1.39-1.19,2.28-1.58c0.89-0.39,1.9-0.58,3.03-0.58
				c0.97,0,1.87,0.15,2.68,0.45c0.81,0.3,1.5,0.74,2.09,1.32c0.58,0.58,1.04,1.28,1.36,2.12c0.33,0.84,0.49,1.79,0.49,2.85
				c0,0.33-0.01,0.6-0.04,0.81c-0.03,0.21-0.08,0.37-0.16,0.5c-0.08,0.12-0.18,0.21-0.3,0.26c-0.13,0.05-0.29,0.07-0.49,0.07H83.6z
				 M89.13,34.19c0-0.35-0.04-0.69-0.14-1.02c-0.09-0.33-0.24-0.63-0.44-0.89c-0.2-0.26-0.47-0.47-0.8-0.63
				c-0.33-0.16-0.73-0.24-1.21-0.24c-0.83,0-1.49,0.24-1.96,0.72c-0.47,0.48-0.79,1.17-0.94,2.07H89.13z"/>
			<path class="st9" d="M122.22,22.63l-6.39,20.68h-4.34L107.6,30.5c-0.08-0.2-0.15-0.42-0.21-0.66c-0.07-0.24-0.13-0.49-0.2-0.76
				c-0.07,0.27-0.13,0.52-0.2,0.76c-0.07,0.24-0.14,0.46-0.21,0.66l-3.95,12.82h-4.34L92.1,22.63h4.03c0.42,0,0.76,0.09,1.04,0.28
				c0.28,0.19,0.46,0.44,0.55,0.75l2.84,10.79c0.08,0.34,0.17,0.71,0.26,1.11c0.08,0.4,0.17,0.82,0.25,1.26
				c0.17-0.89,0.38-1.68,0.63-2.37l3.35-10.79c0.08-0.26,0.27-0.5,0.55-0.72c0.28-0.21,0.62-0.32,1.02-0.32h1.42
				c0.42,0,0.75,0.1,1.01,0.29c0.26,0.19,0.45,0.44,0.58,0.74l3.32,10.79c0.25,0.66,0.45,1.41,0.63,2.26
				c0.08-0.43,0.15-0.83,0.23-1.2c0.08-0.37,0.16-0.73,0.25-1.06l2.84-10.79c0.08-0.27,0.25-0.52,0.54-0.72
				c0.28-0.21,0.62-0.31,1.02-0.31H122.22z"/>
			<path class="st9" d="M125.67,36.74c0.14,1.23,0.52,2.12,1.12,2.68c0.61,0.55,1.39,0.83,2.34,0.83c0.51,0,0.95-0.06,1.32-0.18
				c0.37-0.12,0.7-0.26,0.99-0.41c0.29-0.15,0.55-0.29,0.8-0.41c0.24-0.12,0.49-0.18,0.76-0.18c0.35,0,0.62,0.13,0.8,0.38l1.28,1.58
				c-0.45,0.52-0.94,0.94-1.47,1.27c-0.52,0.33-1.06,0.58-1.62,0.77c-0.55,0.18-1.11,0.31-1.66,0.38c-0.55,0.07-1.08,0.11-1.58,0.11
				c-1.03,0-2-0.17-2.9-0.5c-0.9-0.34-1.69-0.84-2.37-1.5c-0.68-0.66-1.21-1.49-1.6-2.47c-0.39-0.98-0.59-2.13-0.59-3.43
				c0-0.98,0.17-1.92,0.5-2.8c0.34-0.88,0.82-1.65,1.45-2.31c0.63-0.66,1.39-1.19,2.28-1.58c0.89-0.39,1.9-0.58,3.03-0.58
				c0.97,0,1.87,0.15,2.68,0.45c0.81,0.3,1.5,0.74,2.09,1.32c0.58,0.58,1.04,1.28,1.36,2.12s0.49,1.79,0.49,2.85
				c0,0.33-0.01,0.6-0.04,0.81c-0.03,0.21-0.08,0.37-0.16,0.5c-0.08,0.12-0.18,0.21-0.3,0.26c-0.13,0.05-0.29,0.07-0.49,0.07H125.67
				z M131.2,34.19c0-0.35-0.04-0.69-0.14-1.02c-0.09-0.33-0.24-0.63-0.44-0.89c-0.2-0.26-0.47-0.47-0.8-0.63
				c-0.33-0.16-0.73-0.24-1.21-0.24c-0.83,0-1.49,0.24-1.96,0.72c-0.47,0.48-0.79,1.17-0.94,2.07H131.2z"/>
			<path class="st9" d="M141.55,30.18c0.28-0.26,0.58-0.51,0.88-0.74c0.3-0.23,0.63-0.42,0.97-0.58s0.72-0.28,1.12-0.37
				c0.4-0.09,0.84-0.13,1.31-0.13c0.8,0,1.52,0.14,2.14,0.42c0.62,0.28,1.14,0.67,1.57,1.16c0.43,0.5,0.75,1.09,0.96,1.77
				c0.22,0.69,0.33,1.43,0.33,2.24v9.35h-4.4v-9.35c0-0.72-0.17-1.28-0.5-1.68c-0.33-0.4-0.82-0.6-1.46-0.6
				c-0.48,0-0.93,0.1-1.36,0.31c-0.42,0.2-0.83,0.48-1.23,0.83v10.5h-4.4V28.6h2.72c0.55,0,0.91,0.25,1.08,0.74L141.55,30.18z"/>
			<path class="st9" d="M158.88,43.54c-0.7,0-1.32-0.1-1.85-0.3c-0.53-0.2-0.98-0.49-1.35-0.87c-0.36-0.37-0.64-0.83-0.83-1.36
				c-0.19-0.53-0.28-1.12-0.28-1.77v-7.61h-1.25c-0.23,0-0.42-0.07-0.58-0.22c-0.16-0.15-0.24-0.36-0.24-0.65v-1.72l2.34-0.45
				L155.7,25c0.11-0.45,0.44-0.68,0.97-0.68h2.3v4.3h3.65v3.01h-3.65v7.31c0,0.34,0.08,0.62,0.25,0.84
				c0.17,0.22,0.41,0.33,0.72,0.33c0.16,0,0.3-0.02,0.41-0.05c0.11-0.03,0.2-0.07,0.28-0.11c0.08-0.04,0.16-0.08,0.23-0.11
				c0.07-0.03,0.15-0.05,0.25-0.05c0.13,0,0.24,0.03,0.32,0.09c0.08,0.06,0.16,0.16,0.25,0.29l1.34,2.09
				c-0.57,0.43-1.21,0.75-1.92,0.96C160.37,43.44,159.64,43.54,158.88,43.54z"/>
		</g>
	</g>
	<g>
		<path class="st9" d="M46.59,48.42v2.9h0.15c0.04,0,0.08-0.01,0.11-0.02c0.03-0.01,0.06-0.04,0.1-0.08l1.07-1.15
			c0.03-0.04,0.06-0.07,0.1-0.09c0.03-0.02,0.08-0.03,0.14-0.03h0.54l-1.25,1.33c-0.06,0.08-0.12,0.13-0.19,0.18
			c0.04,0.03,0.08,0.06,0.11,0.09c0.03,0.03,0.06,0.07,0.09,0.12l1.32,1.67h-0.53c-0.05,0-0.1-0.01-0.13-0.03
			c-0.04-0.02-0.07-0.05-0.1-0.09L47,51.85c-0.03-0.05-0.07-0.08-0.1-0.09c-0.03-0.01-0.08-0.02-0.15-0.02h-0.17v1.62h-0.6v-4.93
			H46.59z"/>
		<path class="st9" d="M50,48.42v4.93h-0.6v-4.93H50z"/>
		<path class="st9" d="M51.72,48.9c0,0.06-0.01,0.11-0.04,0.16c-0.02,0.05-0.05,0.09-0.09,0.13c-0.04,0.04-0.08,0.07-0.14,0.09
			c-0.05,0.02-0.11,0.03-0.17,0.03c-0.06,0-0.11-0.01-0.16-0.03s-0.09-0.05-0.13-0.09c-0.04-0.04-0.07-0.08-0.09-0.13
			c-0.02-0.05-0.03-0.1-0.03-0.16c0-0.06,0.01-0.11,0.03-0.17c0.02-0.05,0.05-0.1,0.09-0.14c0.04-0.04,0.08-0.07,0.13-0.09
			c0.05-0.02,0.1-0.03,0.16-0.03c0.06,0,0.11,0.01,0.17,0.03c0.05,0.02,0.1,0.05,0.14,0.09c0.04,0.04,0.07,0.08,0.09,0.14
			C51.71,48.79,51.72,48.84,51.72,48.9z M51.59,49.96v3.39H51v-3.39H51.59z"/>
		<path class="st9" d="M52.57,53.35v-3.39h0.36c0.08,0,0.14,0.04,0.16,0.12l0.04,0.35c0.13-0.15,0.27-0.28,0.42-0.38
			c0.16-0.1,0.34-0.15,0.54-0.15c0.23,0,0.41,0.06,0.55,0.19c0.14,0.13,0.24,0.3,0.31,0.52c0.05-0.12,0.11-0.23,0.19-0.32
			c0.08-0.09,0.16-0.16,0.26-0.22c0.1-0.06,0.2-0.1,0.31-0.13c0.11-0.03,0.22-0.04,0.33-0.04c0.18,0,0.34,0.03,0.48,0.09
			s0.26,0.14,0.36,0.25c0.1,0.11,0.17,0.24,0.22,0.4c0.05,0.16,0.08,0.34,0.08,0.55v2.16h-0.6v-2.16c0-0.27-0.06-0.47-0.17-0.6
			c-0.12-0.14-0.28-0.21-0.5-0.21c-0.1,0-0.19,0.02-0.28,0.05c-0.09,0.03-0.17,0.09-0.23,0.15c-0.07,0.07-0.12,0.15-0.16,0.25
			c-0.04,0.1-0.06,0.22-0.06,0.35v2.16h-0.6v-2.16c0-0.27-0.06-0.47-0.16-0.61c-0.11-0.13-0.27-0.2-0.48-0.2
			c-0.15,0-0.28,0.04-0.41,0.12c-0.13,0.08-0.24,0.19-0.34,0.32v2.53H52.57z"/>
		<path class="st9" d="M57.99,50.44c0.19-0.18,0.39-0.32,0.61-0.4c0.22-0.09,0.46-0.13,0.72-0.13c0.19,0,0.36,0.03,0.51,0.09
			c0.15,0.06,0.27,0.15,0.37,0.26c0.1,0.11,0.18,0.25,0.23,0.41c0.05,0.16,0.08,0.33,0.08,0.52v2.17h-0.26
			c-0.06,0-0.1-0.01-0.13-0.03c-0.03-0.02-0.06-0.06-0.07-0.11l-0.07-0.32c-0.09,0.08-0.18,0.16-0.26,0.22
			c-0.08,0.06-0.17,0.12-0.27,0.16c-0.09,0.04-0.19,0.08-0.3,0.1c-0.11,0.02-0.22,0.03-0.35,0.03c-0.13,0-0.26-0.02-0.37-0.05
			s-0.22-0.09-0.3-0.17c-0.09-0.07-0.15-0.17-0.2-0.28c-0.05-0.11-0.08-0.25-0.08-0.4c0-0.13,0.04-0.26,0.11-0.39
			c0.07-0.12,0.19-0.23,0.36-0.33s0.38-0.17,0.65-0.24s0.59-0.1,0.98-0.11v-0.26c0-0.26-0.06-0.46-0.17-0.6
			c-0.11-0.13-0.28-0.2-0.5-0.2c-0.15,0-0.27,0.02-0.37,0.06c-0.1,0.04-0.19,0.08-0.26,0.12c-0.07,0.05-0.13,0.09-0.19,0.12
			c-0.05,0.04-0.1,0.05-0.16,0.05c-0.04,0-0.08-0.01-0.1-0.03c-0.03-0.02-0.05-0.05-0.07-0.08L57.99,50.44z M59.91,51.83
			c-0.27,0.01-0.51,0.03-0.7,0.06c-0.19,0.03-0.35,0.08-0.47,0.14c-0.12,0.06-0.21,0.12-0.26,0.2c-0.05,0.08-0.08,0.16-0.08,0.25
			c0,0.09,0.01,0.17,0.04,0.23c0.03,0.06,0.07,0.12,0.12,0.16c0.05,0.04,0.11,0.07,0.18,0.09c0.07,0.02,0.14,0.03,0.22,0.03
			c0.1,0,0.2-0.01,0.29-0.03c0.09-0.02,0.17-0.05,0.25-0.09c0.08-0.04,0.15-0.09,0.22-0.14s0.14-0.12,0.21-0.19V51.83z"/>
		<path class="st9" d="M62.4,53.4c-0.27,0-0.47-0.07-0.62-0.22c-0.14-0.15-0.22-0.36-0.22-0.65v-2.07h-0.41
			c-0.04,0-0.07-0.01-0.09-0.03c-0.02-0.02-0.04-0.05-0.04-0.1v-0.24l0.56-0.07l0.14-1.05c0.01-0.03,0.02-0.06,0.05-0.08
			s0.05-0.03,0.09-0.03h0.3v1.17h0.98v0.43h-0.98v2.03c0,0.14,0.03,0.25,0.1,0.32c0.07,0.07,0.16,0.1,0.27,0.1
			c0.06,0,0.12-0.01,0.16-0.03c0.05-0.02,0.08-0.03,0.12-0.06c0.03-0.02,0.06-0.04,0.08-0.05c0.02-0.02,0.04-0.03,0.06-0.03
			c0.03,0,0.06,0.02,0.08,0.06l0.17,0.28c-0.1,0.1-0.23,0.17-0.37,0.23C62.7,53.38,62.55,53.4,62.4,53.4z"/>
		<path class="st9" d="M66.68,49.96l-1.89,4.39c-0.02,0.04-0.05,0.08-0.08,0.11c-0.03,0.03-0.08,0.04-0.14,0.04h-0.44l0.62-1.34
			l-1.4-3.19h0.52c0.05,0,0.09,0.01,0.12,0.04c0.03,0.03,0.05,0.05,0.06,0.09l0.91,2.13c0.04,0.09,0.07,0.19,0.09,0.29
			c0.03-0.1,0.06-0.2,0.1-0.3l0.88-2.13c0.01-0.04,0.04-0.07,0.07-0.09c0.03-0.02,0.07-0.03,0.11-0.03H66.68z"/>
		<path class="st9" d="M69.54,50.22c0,0.04-0.01,0.08-0.02,0.12c-0.01,0.04-0.03,0.07-0.06,0.1l-1.84,2.44h1.85v0.47h-2.55V53.1
			c0-0.03,0.01-0.06,0.02-0.1c0.01-0.04,0.03-0.08,0.06-0.11l1.85-2.46h-1.82v-0.47h2.51V50.22z"/>
		<path class="st9" d="M70.14,50.44c0.19-0.18,0.39-0.32,0.61-0.4c0.22-0.09,0.46-0.13,0.72-0.13c0.19,0,0.36,0.03,0.51,0.09
			c0.15,0.06,0.27,0.15,0.37,0.26c0.1,0.11,0.18,0.25,0.23,0.41c0.05,0.16,0.08,0.33,0.08,0.52v2.17h-0.26
			c-0.06,0-0.1-0.01-0.13-0.03c-0.03-0.02-0.06-0.06-0.07-0.11l-0.07-0.32c-0.09,0.08-0.18,0.16-0.26,0.22
			c-0.08,0.06-0.17,0.12-0.27,0.16c-0.09,0.04-0.19,0.08-0.3,0.1c-0.11,0.02-0.22,0.03-0.35,0.03c-0.13,0-0.26-0.02-0.37-0.05
			s-0.22-0.09-0.3-0.17c-0.09-0.07-0.15-0.17-0.2-0.28c-0.05-0.11-0.08-0.25-0.08-0.4c0-0.13,0.04-0.26,0.11-0.39
			c0.07-0.12,0.19-0.23,0.36-0.33s0.38-0.17,0.65-0.24c0.27-0.06,0.59-0.1,0.98-0.11v-0.26c0-0.26-0.06-0.46-0.17-0.6
			c-0.11-0.13-0.28-0.2-0.5-0.2c-0.15,0-0.27,0.02-0.37,0.06c-0.1,0.04-0.19,0.08-0.26,0.12c-0.07,0.05-0.13,0.09-0.19,0.12
			c-0.05,0.04-0.1,0.05-0.16,0.05c-0.04,0-0.08-0.01-0.1-0.03c-0.03-0.02-0.05-0.05-0.07-0.08L70.14,50.44z M72.06,51.83
			c-0.27,0.01-0.51,0.03-0.7,0.06c-0.19,0.03-0.35,0.08-0.47,0.14c-0.12,0.06-0.21,0.12-0.26,0.2c-0.05,0.08-0.08,0.16-0.08,0.25
			c0,0.09,0.01,0.17,0.04,0.23c0.03,0.06,0.07,0.12,0.12,0.16c0.05,0.04,0.11,0.07,0.18,0.09c0.07,0.02,0.14,0.03,0.22,0.03
			c0.1,0,0.2-0.01,0.29-0.03s0.17-0.05,0.25-0.09c0.08-0.04,0.15-0.09,0.22-0.14s0.14-0.12,0.21-0.19V51.83z"/>
		<path class="st9" d="M75.91,50.56c-0.02,0.03-0.04,0.04-0.05,0.06c-0.02,0.01-0.04,0.02-0.07,0.02c-0.03,0-0.07-0.01-0.11-0.04
			c-0.04-0.03-0.09-0.06-0.15-0.09c-0.06-0.03-0.13-0.06-0.22-0.09c-0.09-0.03-0.19-0.04-0.32-0.04c-0.17,0-0.31,0.03-0.44,0.09
			c-0.13,0.06-0.23,0.14-0.32,0.26c-0.09,0.11-0.15,0.25-0.19,0.4c-0.04,0.16-0.07,0.34-0.07,0.53c0,0.21,0.02,0.39,0.07,0.55
			c0.05,0.16,0.11,0.29,0.2,0.4c0.09,0.11,0.19,0.19,0.31,0.25c0.12,0.06,0.26,0.08,0.41,0.08c0.14,0,0.26-0.02,0.36-0.05
			c0.09-0.03,0.17-0.07,0.23-0.12s0.11-0.08,0.15-0.12c0.04-0.03,0.08-0.05,0.12-0.05c0.05,0,0.09,0.02,0.11,0.06l0.17,0.22
			c-0.07,0.09-0.16,0.17-0.25,0.23c-0.09,0.06-0.19,0.12-0.3,0.16c-0.11,0.04-0.22,0.08-0.34,0.1c-0.12,0.02-0.24,0.03-0.36,0.03
			c-0.21,0-0.41-0.04-0.59-0.12c-0.18-0.08-0.34-0.19-0.47-0.34c-0.13-0.15-0.24-0.33-0.31-0.55c-0.08-0.22-0.11-0.46-0.11-0.74
			c0-0.25,0.04-0.49,0.11-0.7c0.07-0.21,0.17-0.4,0.31-0.55c0.14-0.16,0.3-0.28,0.5-0.36c0.2-0.09,0.42-0.13,0.68-0.13
			c0.24,0,0.45,0.04,0.63,0.12c0.18,0.08,0.34,0.19,0.48,0.33L75.91,50.56z"/>
		<path class="st9" d="M77.37,49.96v3.64c0,0.14-0.02,0.26-0.05,0.38c-0.04,0.12-0.09,0.22-0.17,0.31c-0.08,0.09-0.18,0.16-0.3,0.21
			c-0.12,0.05-0.27,0.08-0.44,0.08c-0.07,0-0.14-0.01-0.2-0.02c-0.06-0.01-0.12-0.03-0.18-0.05l0.02-0.32
			c0-0.02,0.01-0.04,0.02-0.05c0.01-0.01,0.02-0.02,0.04-0.02c0.02,0,0.04,0,0.07,0c0.03,0,0.06,0,0.11,0c0.17,0,0.3-0.04,0.37-0.12
			c0.07-0.08,0.11-0.21,0.11-0.39v-3.64H77.37z M77.5,48.9c0,0.06-0.01,0.11-0.04,0.16c-0.02,0.05-0.05,0.09-0.09,0.13
			c-0.04,0.04-0.08,0.07-0.14,0.09s-0.11,0.03-0.16,0.03c-0.06,0-0.11-0.01-0.16-0.03c-0.05-0.02-0.09-0.05-0.13-0.09
			c-0.04-0.04-0.07-0.08-0.09-0.13c-0.02-0.05-0.03-0.1-0.03-0.16c0-0.06,0.01-0.11,0.03-0.17c0.02-0.05,0.05-0.1,0.09-0.14
			c0.04-0.04,0.08-0.07,0.13-0.09c0.05-0.02,0.1-0.03,0.16-0.03c0.06,0,0.11,0.01,0.16,0.03c0.05,0.02,0.1,0.05,0.14,0.09
			c0.04,0.04,0.07,0.08,0.09,0.14C77.49,48.79,77.5,48.84,77.5,48.9z"/>
		<path class="st9" d="M78.26,50.44c0.19-0.18,0.39-0.32,0.61-0.4c0.22-0.09,0.46-0.13,0.72-0.13c0.19,0,0.36,0.03,0.51,0.09
			c0.15,0.06,0.27,0.15,0.37,0.26c0.1,0.11,0.18,0.25,0.23,0.41c0.05,0.16,0.08,0.33,0.08,0.52v2.17h-0.26
			c-0.06,0-0.1-0.01-0.13-0.03c-0.03-0.02-0.06-0.06-0.07-0.11l-0.07-0.32c-0.09,0.08-0.18,0.16-0.26,0.22
			c-0.08,0.06-0.17,0.12-0.27,0.16c-0.09,0.04-0.19,0.08-0.3,0.1c-0.11,0.02-0.22,0.03-0.35,0.03c-0.13,0-0.26-0.02-0.37-0.05
			s-0.22-0.09-0.3-0.17c-0.09-0.07-0.15-0.17-0.2-0.28c-0.05-0.11-0.08-0.25-0.08-0.4c0-0.13,0.04-0.26,0.11-0.39
			c0.07-0.12,0.19-0.23,0.36-0.33s0.38-0.17,0.65-0.24c0.27-0.06,0.59-0.1,0.98-0.11v-0.26c0-0.26-0.06-0.46-0.17-0.6
			c-0.11-0.13-0.28-0.2-0.5-0.2c-0.15,0-0.27,0.02-0.37,0.06c-0.1,0.04-0.19,0.08-0.26,0.12c-0.07,0.05-0.13,0.09-0.19,0.12
			c-0.05,0.04-0.1,0.05-0.16,0.05c-0.04,0-0.08-0.01-0.1-0.03c-0.03-0.02-0.05-0.05-0.07-0.08L78.26,50.44z M80.19,51.83
			c-0.27,0.01-0.51,0.03-0.7,0.06c-0.19,0.03-0.35,0.08-0.47,0.14c-0.12,0.06-0.21,0.12-0.26,0.2c-0.05,0.08-0.08,0.16-0.08,0.25
			c0,0.09,0.01,0.17,0.04,0.23c0.03,0.06,0.07,0.12,0.12,0.16c0.05,0.04,0.11,0.07,0.18,0.09c0.07,0.02,0.14,0.03,0.22,0.03
			c0.1,0,0.2-0.01,0.29-0.03s0.17-0.05,0.25-0.09c0.08-0.04,0.15-0.09,0.22-0.14c0.07-0.06,0.14-0.12,0.21-0.19V51.83z"/>
		<path class="st9" d="M83.62,51.36c0-0.17,0.03-0.33,0.1-0.49c0.07-0.15,0.15-0.28,0.27-0.4c0.11-0.11,0.24-0.2,0.39-0.27
			c0.15-0.07,0.31-0.1,0.48-0.1c0.17,0,0.33,0.03,0.48,0.1c0.15,0.07,0.28,0.16,0.39,0.27c0.11,0.11,0.2,0.24,0.27,0.4
			c0.07,0.15,0.1,0.31,0.1,0.49c0,0.17-0.03,0.33-0.1,0.48c-0.07,0.15-0.16,0.28-0.27,0.39c-0.11,0.11-0.24,0.2-0.39,0.27
			c-0.15,0.07-0.31,0.1-0.48,0.1c-0.17,0-0.33-0.03-0.48-0.1c-0.15-0.07-0.28-0.15-0.39-0.27c-0.11-0.11-0.2-0.24-0.27-0.39
			C83.65,51.69,83.62,51.53,83.62,51.36z"/>
		<path class="st9" d="M93.52,49.96l-1.1,3.39h-0.47c-0.06,0-0.1-0.04-0.12-0.11l-0.75-2.3c-0.02-0.05-0.03-0.1-0.04-0.16
			c-0.01-0.05-0.02-0.1-0.03-0.16c-0.01,0.05-0.02,0.1-0.03,0.16c-0.01,0.05-0.03,0.11-0.04,0.16l-0.76,2.29
			c-0.02,0.08-0.06,0.11-0.13,0.11h-0.45l-1.1-3.39h0.47c0.05,0,0.09,0.01,0.12,0.04c0.03,0.02,0.05,0.05,0.07,0.09l0.65,2.18
			c0.04,0.16,0.07,0.31,0.09,0.45c0.02-0.07,0.04-0.15,0.06-0.22c0.02-0.08,0.04-0.15,0.07-0.23l0.72-2.2
			c0.01-0.03,0.03-0.06,0.06-0.08c0.03-0.02,0.06-0.03,0.1-0.03h0.26c0.04,0,0.08,0.01,0.11,0.03c0.03,0.02,0.05,0.05,0.06,0.08
			l0.7,2.2c0.02,0.08,0.05,0.15,0.07,0.23c0.02,0.08,0.04,0.15,0.06,0.22c0.01-0.07,0.03-0.15,0.04-0.22
			c0.02-0.07,0.04-0.15,0.06-0.23l0.66-2.18c0.01-0.04,0.03-0.07,0.06-0.09c0.03-0.02,0.07-0.03,0.11-0.03H93.52z"/>
		<path class="st9" d="M96.8,52.88c-0.07,0.09-0.16,0.17-0.26,0.23c-0.1,0.07-0.21,0.12-0.33,0.16c-0.12,0.04-0.24,0.07-0.36,0.1
			s-0.25,0.03-0.37,0.03c-0.23,0-0.45-0.04-0.65-0.12c-0.2-0.08-0.37-0.19-0.51-0.35c-0.14-0.15-0.26-0.34-0.34-0.57
			c-0.08-0.23-0.12-0.48-0.12-0.78c0-0.24,0.04-0.46,0.11-0.66c0.07-0.21,0.18-0.38,0.31-0.53c0.14-0.15,0.3-0.27,0.5-0.35
			c0.2-0.09,0.42-0.13,0.66-0.13c0.2,0,0.39,0.03,0.56,0.1c0.17,0.07,0.32,0.17,0.45,0.29c0.13,0.13,0.22,0.29,0.3,0.48
			s0.11,0.4,0.11,0.64c0,0.09-0.01,0.16-0.03,0.19c-0.02,0.03-0.06,0.05-0.11,0.05h-2.26c0.01,0.21,0.04,0.4,0.09,0.56
			c0.05,0.16,0.13,0.29,0.22,0.4c0.09,0.11,0.21,0.19,0.33,0.24c0.13,0.05,0.27,0.08,0.43,0.08c0.15,0,0.28-0.02,0.39-0.05
			c0.11-0.03,0.2-0.07,0.28-0.11c0.08-0.04,0.14-0.08,0.2-0.11c0.05-0.03,0.1-0.05,0.14-0.05c0.05,0,0.09,0.02,0.11,0.06L96.8,52.88
			z M96.32,51.29c0-0.14-0.02-0.26-0.06-0.38c-0.04-0.11-0.1-0.21-0.17-0.3c-0.08-0.08-0.17-0.15-0.27-0.19
			c-0.11-0.05-0.23-0.07-0.36-0.07c-0.29,0-0.51,0.08-0.68,0.25c-0.17,0.17-0.27,0.4-0.31,0.69H96.32z"/>
		<path class="st9" d="M98.15,50.45c0.07-0.08,0.15-0.16,0.23-0.22c0.08-0.07,0.17-0.12,0.26-0.17c0.09-0.05,0.19-0.08,0.29-0.11
			c0.1-0.03,0.22-0.04,0.34-0.04c0.19,0,0.35,0.03,0.49,0.09c0.14,0.06,0.26,0.15,0.35,0.26c0.09,0.11,0.17,0.25,0.22,0.41
			c0.05,0.16,0.07,0.33,0.07,0.52v2.16h-0.6v-2.16c0-0.26-0.06-0.46-0.18-0.6c-0.12-0.14-0.3-0.21-0.53-0.21
			c-0.18,0-0.34,0.04-0.49,0.13c-0.15,0.08-0.29,0.2-0.42,0.34v2.5h-0.6v-3.39h0.36c0.08,0,0.14,0.04,0.16,0.12L98.15,50.45z"/>
		<path class="st9" d="M102.31,53.4c-0.27,0-0.47-0.07-0.62-0.22c-0.14-0.15-0.22-0.36-0.22-0.65v-2.07h-0.41
			c-0.04,0-0.07-0.01-0.09-0.03s-0.04-0.05-0.04-0.1v-0.24l0.56-0.07l0.14-1.05c0.01-0.03,0.02-0.06,0.05-0.08s0.05-0.03,0.09-0.03
			h0.3v1.17h0.98v0.43h-0.98v2.03c0,0.14,0.03,0.25,0.1,0.32c0.07,0.07,0.16,0.1,0.27,0.1c0.06,0,0.12-0.01,0.16-0.03
			c0.05-0.02,0.08-0.03,0.12-0.06c0.03-0.02,0.06-0.04,0.08-0.05c0.02-0.02,0.04-0.03,0.06-0.03c0.03,0,0.06,0.02,0.08,0.06
			l0.17,0.28c-0.1,0.1-0.23,0.17-0.37,0.23C102.62,53.38,102.47,53.4,102.31,53.4z"/>
		<path class="st9" d="M106.6,49.96l-1.89,4.39c-0.02,0.04-0.05,0.08-0.08,0.11c-0.03,0.03-0.08,0.04-0.14,0.04h-0.44l0.62-1.34
			l-1.4-3.19h0.52c0.05,0,0.09,0.01,0.12,0.04c0.03,0.03,0.05,0.05,0.06,0.09l0.91,2.13c0.04,0.09,0.07,0.19,0.09,0.29
			c0.03-0.1,0.06-0.2,0.1-0.3l0.88-2.13c0.01-0.04,0.04-0.07,0.07-0.09c0.03-0.02,0.07-0.03,0.11-0.03H106.6z"/>
		<path class="st9" d="M107.74,48.42v4.93h-0.6v-4.93H107.74z"/>
		<path class="st9" d="M108.61,50.44c0.19-0.18,0.39-0.32,0.61-0.4c0.22-0.09,0.46-0.13,0.72-0.13c0.19,0,0.36,0.03,0.51,0.09
			c0.15,0.06,0.27,0.15,0.37,0.26c0.1,0.11,0.18,0.25,0.23,0.41c0.05,0.16,0.08,0.33,0.08,0.52v2.17h-0.26
			c-0.06,0-0.1-0.01-0.13-0.03c-0.03-0.02-0.06-0.06-0.07-0.11l-0.07-0.32c-0.09,0.08-0.18,0.16-0.26,0.22
			c-0.08,0.06-0.17,0.12-0.27,0.16c-0.09,0.04-0.19,0.08-0.3,0.1c-0.11,0.02-0.22,0.03-0.35,0.03c-0.13,0-0.26-0.02-0.37-0.05
			c-0.12-0.04-0.22-0.09-0.3-0.17c-0.09-0.07-0.15-0.17-0.2-0.28c-0.05-0.11-0.08-0.25-0.08-0.4c0-0.13,0.04-0.26,0.11-0.39
			c0.07-0.12,0.19-0.23,0.36-0.33s0.38-0.17,0.65-0.24s0.59-0.1,0.98-0.11v-0.26c0-0.26-0.06-0.46-0.17-0.6
			c-0.11-0.13-0.28-0.2-0.5-0.2c-0.15,0-0.27,0.02-0.37,0.06c-0.1,0.04-0.19,0.08-0.26,0.12c-0.07,0.05-0.13,0.09-0.19,0.12
			c-0.05,0.04-0.1,0.05-0.16,0.05c-0.04,0-0.08-0.01-0.1-0.03s-0.05-0.05-0.07-0.08L108.61,50.44z M110.54,51.83
			c-0.27,0.01-0.51,0.03-0.7,0.06c-0.19,0.03-0.35,0.08-0.47,0.14c-0.12,0.06-0.21,0.12-0.26,0.2c-0.05,0.08-0.08,0.16-0.08,0.25
			c0,0.09,0.01,0.17,0.04,0.23c0.03,0.06,0.07,0.12,0.12,0.16c0.05,0.04,0.11,0.07,0.18,0.09c0.07,0.02,0.14,0.03,0.22,0.03
			c0.1,0,0.2-0.01,0.29-0.03c0.09-0.02,0.17-0.05,0.25-0.09c0.08-0.04,0.15-0.09,0.22-0.14s0.14-0.12,0.21-0.19V51.83z"/>
		<path class="st9" d="M114.38,50.56c-0.02,0.03-0.04,0.04-0.05,0.06c-0.02,0.01-0.04,0.02-0.07,0.02c-0.03,0-0.07-0.01-0.11-0.04
			c-0.04-0.03-0.09-0.06-0.15-0.09c-0.06-0.03-0.13-0.06-0.22-0.09c-0.09-0.03-0.19-0.04-0.32-0.04c-0.17,0-0.31,0.03-0.44,0.09
			c-0.13,0.06-0.23,0.14-0.32,0.26c-0.09,0.11-0.15,0.25-0.19,0.4c-0.04,0.16-0.07,0.34-0.07,0.53c0,0.21,0.02,0.39,0.07,0.55
			c0.05,0.16,0.11,0.29,0.2,0.4c0.09,0.11,0.19,0.19,0.31,0.25c0.12,0.06,0.26,0.08,0.41,0.08c0.14,0,0.26-0.02,0.36-0.05
			c0.09-0.03,0.17-0.07,0.23-0.12s0.11-0.08,0.15-0.12c0.04-0.03,0.08-0.05,0.12-0.05c0.05,0,0.09,0.02,0.11,0.06l0.17,0.22
			c-0.07,0.09-0.16,0.17-0.25,0.23c-0.09,0.06-0.19,0.12-0.3,0.16c-0.11,0.04-0.22,0.08-0.34,0.1c-0.12,0.02-0.24,0.03-0.36,0.03
			c-0.21,0-0.41-0.04-0.59-0.12c-0.18-0.08-0.34-0.19-0.47-0.34c-0.13-0.15-0.24-0.33-0.31-0.55c-0.08-0.22-0.11-0.46-0.11-0.74
			c0-0.25,0.04-0.49,0.11-0.7c0.07-0.21,0.17-0.4,0.31-0.55c0.14-0.16,0.3-0.28,0.5-0.36c0.2-0.09,0.42-0.13,0.68-0.13
			c0.24,0,0.45,0.04,0.63,0.12c0.18,0.08,0.34,0.19,0.48,0.33L114.38,50.56z"/>
		<path class="st9" d="M115.85,49.96v3.64c0,0.14-0.02,0.26-0.05,0.38c-0.04,0.12-0.09,0.22-0.17,0.31
			c-0.08,0.09-0.18,0.16-0.3,0.21c-0.12,0.05-0.27,0.08-0.44,0.08c-0.07,0-0.14-0.01-0.2-0.02c-0.06-0.01-0.12-0.03-0.18-0.05
			l0.02-0.32c0-0.02,0.01-0.04,0.02-0.05c0.01-0.01,0.02-0.02,0.04-0.02c0.02,0,0.04,0,0.07,0c0.03,0,0.06,0,0.11,0
			c0.17,0,0.3-0.04,0.37-0.12c0.07-0.08,0.11-0.21,0.11-0.39v-3.64H115.85z M115.97,48.9c0,0.06-0.01,0.11-0.04,0.16
			c-0.02,0.05-0.05,0.09-0.09,0.13c-0.04,0.04-0.08,0.07-0.14,0.09s-0.11,0.03-0.16,0.03c-0.06,0-0.11-0.01-0.16-0.03
			c-0.05-0.02-0.09-0.05-0.13-0.09c-0.04-0.04-0.07-0.08-0.09-0.13c-0.02-0.05-0.03-0.1-0.03-0.16c0-0.06,0.01-0.11,0.03-0.17
			c0.02-0.05,0.05-0.1,0.09-0.14c0.04-0.04,0.08-0.07,0.13-0.09c0.05-0.02,0.1-0.03,0.16-0.03c0.06,0,0.11,0.01,0.16,0.03
			c0.05,0.02,0.1,0.05,0.14,0.09c0.04,0.04,0.07,0.08,0.09,0.14C115.96,48.79,115.97,48.84,115.97,48.9z"/>
		<path class="st9" d="M116.74,50.44c0.19-0.18,0.39-0.32,0.61-0.4c0.22-0.09,0.46-0.13,0.72-0.13c0.19,0,0.36,0.03,0.51,0.09
			c0.15,0.06,0.27,0.15,0.37,0.26c0.1,0.11,0.18,0.25,0.23,0.41c0.05,0.16,0.08,0.33,0.08,0.52v2.17h-0.26
			c-0.06,0-0.1-0.01-0.13-0.03c-0.03-0.02-0.06-0.06-0.07-0.11l-0.07-0.32c-0.09,0.08-0.18,0.16-0.26,0.22
			c-0.08,0.06-0.17,0.12-0.27,0.16c-0.09,0.04-0.19,0.08-0.3,0.1c-0.11,0.02-0.22,0.03-0.35,0.03c-0.13,0-0.26-0.02-0.37-0.05
			c-0.12-0.04-0.22-0.09-0.3-0.17c-0.09-0.07-0.15-0.17-0.2-0.28c-0.05-0.11-0.08-0.25-0.08-0.4c0-0.13,0.04-0.26,0.11-0.39
			c0.07-0.12,0.19-0.23,0.36-0.33c0.17-0.1,0.38-0.17,0.65-0.24s0.59-0.1,0.98-0.11v-0.26c0-0.26-0.06-0.46-0.17-0.6
			c-0.11-0.13-0.28-0.2-0.5-0.2c-0.15,0-0.27,0.02-0.37,0.06c-0.1,0.04-0.19,0.08-0.26,0.12c-0.07,0.05-0.13,0.09-0.19,0.12
			c-0.05,0.04-0.1,0.05-0.16,0.05c-0.04,0-0.08-0.01-0.1-0.03s-0.05-0.05-0.07-0.08L116.74,50.44z M118.66,51.83
			c-0.27,0.01-0.51,0.03-0.7,0.06c-0.19,0.03-0.35,0.08-0.47,0.14c-0.12,0.06-0.21,0.12-0.26,0.2c-0.05,0.08-0.08,0.16-0.08,0.25
			c0,0.09,0.01,0.17,0.04,0.23c0.03,0.06,0.07,0.12,0.12,0.16c0.05,0.04,0.11,0.07,0.18,0.09c0.07,0.02,0.14,0.03,0.22,0.03
			c0.1,0,0.2-0.01,0.29-0.03c0.09-0.02,0.17-0.05,0.25-0.09c0.08-0.04,0.15-0.09,0.22-0.14s0.14-0.12,0.21-0.19V51.83z"/>
		<path class="st9" d="M122.09,51.36c0-0.17,0.03-0.33,0.1-0.49c0.07-0.15,0.15-0.28,0.27-0.4c0.11-0.11,0.24-0.2,0.39-0.27
			c0.15-0.07,0.31-0.1,0.48-0.1c0.17,0,0.33,0.03,0.48,0.1c0.15,0.07,0.28,0.16,0.39,0.27c0.11,0.11,0.2,0.24,0.27,0.4
			c0.07,0.15,0.1,0.31,0.1,0.49c0,0.17-0.03,0.33-0.1,0.48c-0.07,0.15-0.16,0.28-0.27,0.39c-0.11,0.11-0.24,0.2-0.39,0.27
			c-0.15,0.07-0.31,0.1-0.48,0.1c-0.17,0-0.33-0.03-0.48-0.1c-0.15-0.07-0.28-0.15-0.39-0.27c-0.11-0.11-0.2-0.24-0.27-0.39
			C122.12,51.69,122.09,51.53,122.09,51.36z"/>
		<path class="st9" d="M128.02,50.64c0.11-0.23,0.24-0.41,0.39-0.54c0.16-0.13,0.35-0.2,0.57-0.2c0.07,0,0.14,0.01,0.21,0.02
			s0.12,0.04,0.18,0.07l-0.04,0.44c-0.01,0.06-0.05,0.08-0.1,0.08c-0.03,0-0.08-0.01-0.14-0.02c-0.06-0.01-0.13-0.02-0.2-0.02
			c-0.11,0-0.2,0.02-0.29,0.05c-0.08,0.03-0.16,0.08-0.22,0.14c-0.07,0.06-0.13,0.14-0.18,0.23s-0.1,0.19-0.14,0.31v2.14h-0.6v-3.39
			h0.34c0.06,0,0.11,0.01,0.13,0.04c0.02,0.02,0.04,0.07,0.05,0.13L128.02,50.64z"/>
		<path class="st9" d="M132.51,52.88c-0.07,0.09-0.16,0.17-0.26,0.23c-0.1,0.07-0.21,0.12-0.33,0.16c-0.12,0.04-0.24,0.07-0.36,0.1
			s-0.25,0.03-0.37,0.03c-0.23,0-0.45-0.04-0.65-0.12c-0.2-0.08-0.37-0.19-0.51-0.35c-0.14-0.15-0.26-0.34-0.34-0.57
			c-0.08-0.23-0.12-0.48-0.12-0.78c0-0.24,0.04-0.46,0.11-0.66c0.07-0.21,0.18-0.38,0.31-0.53c0.14-0.15,0.3-0.27,0.5-0.35
			c0.2-0.09,0.42-0.13,0.66-0.13c0.2,0,0.39,0.03,0.56,0.1c0.17,0.07,0.32,0.17,0.45,0.29c0.13,0.13,0.22,0.29,0.3,0.48
			s0.11,0.4,0.11,0.64c0,0.09-0.01,0.16-0.03,0.19c-0.02,0.03-0.06,0.05-0.11,0.05h-2.26c0.01,0.21,0.04,0.4,0.09,0.56
			c0.05,0.16,0.13,0.29,0.22,0.4c0.09,0.11,0.21,0.19,0.33,0.24c0.13,0.05,0.27,0.08,0.43,0.08c0.15,0,0.28-0.02,0.39-0.05
			c0.11-0.03,0.2-0.07,0.28-0.11c0.08-0.04,0.14-0.08,0.2-0.11c0.05-0.03,0.1-0.05,0.14-0.05c0.05,0,0.09,0.02,0.11,0.06
			L132.51,52.88z M132.02,51.29c0-0.14-0.02-0.26-0.06-0.38c-0.04-0.11-0.1-0.21-0.17-0.3c-0.08-0.08-0.17-0.15-0.27-0.19
			c-0.11-0.05-0.23-0.07-0.36-0.07c-0.29,0-0.51,0.08-0.68,0.25c-0.17,0.17-0.27,0.4-0.31,0.69H132.02z"/>
		<path class="st9" d="M133.89,48.42v2.9h0.15c0.04,0,0.08-0.01,0.11-0.02c0.03-0.01,0.06-0.04,0.1-0.08l1.07-1.15
			c0.03-0.04,0.06-0.07,0.1-0.09c0.03-0.02,0.08-0.03,0.14-0.03h0.54l-1.25,1.33c-0.06,0.08-0.12,0.13-0.19,0.18
			c0.04,0.03,0.08,0.06,0.11,0.09c0.03,0.03,0.06,0.07,0.09,0.12l1.32,1.67h-0.53c-0.05,0-0.1-0.01-0.13-0.03
			c-0.04-0.02-0.07-0.05-0.1-0.09l-1.11-1.39c-0.03-0.05-0.07-0.08-0.1-0.09c-0.03-0.01-0.08-0.02-0.15-0.02h-0.17v1.62h-0.6v-4.93
			H133.89z"/>
		<path class="st9" d="M139.47,49.96v3.39h-0.35c-0.08,0-0.14-0.04-0.16-0.12l-0.05-0.36c-0.15,0.16-0.31,0.29-0.5,0.39
			c-0.18,0.1-0.39,0.15-0.63,0.15c-0.19,0-0.35-0.03-0.49-0.09c-0.14-0.06-0.26-0.15-0.36-0.26c-0.1-0.11-0.17-0.25-0.22-0.4
			c-0.05-0.16-0.07-0.33-0.07-0.53v-2.16h0.6v2.16c0,0.26,0.06,0.46,0.18,0.6c0.12,0.14,0.3,0.21,0.54,0.21
			c0.18,0,0.34-0.04,0.49-0.13c0.15-0.08,0.29-0.2,0.42-0.35v-2.5H139.47z"/>
		<path class="st9" d="M140.99,50.49c0.14-0.18,0.31-0.32,0.49-0.42s0.4-0.16,0.64-0.16c0.2,0,0.37,0.04,0.53,0.11
			c0.16,0.07,0.29,0.19,0.41,0.33c0.11,0.15,0.2,0.33,0.26,0.54c0.06,0.22,0.09,0.47,0.09,0.75c0,0.25-0.03,0.48-0.1,0.7
			c-0.07,0.22-0.16,0.4-0.29,0.56c-0.13,0.16-0.28,0.28-0.46,0.37c-0.18,0.09-0.39,0.14-0.61,0.14c-0.21,0-0.39-0.03-0.53-0.11
			c-0.15-0.07-0.28-0.17-0.39-0.29v1.5h-0.6v-4.54h0.36c0.08,0,0.14,0.04,0.16,0.12L140.99,50.49z M141.02,52.54
			c0.11,0.15,0.23,0.25,0.36,0.31c0.13,0.06,0.27,0.09,0.44,0.09c0.32,0,0.56-0.11,0.73-0.34c0.17-0.23,0.25-0.55,0.25-0.96
			c0-0.22-0.02-0.41-0.06-0.57c-0.04-0.16-0.1-0.29-0.17-0.39c-0.07-0.1-0.16-0.18-0.27-0.22c-0.11-0.05-0.23-0.07-0.36-0.07
			c-0.19,0-0.36,0.04-0.51,0.13c-0.15,0.09-0.28,0.22-0.4,0.38V52.54z"/>
		<path class="st9" d="M146.92,52.88c-0.07,0.09-0.16,0.17-0.26,0.23c-0.1,0.07-0.21,0.12-0.33,0.16c-0.12,0.04-0.24,0.07-0.36,0.1
			c-0.12,0.02-0.25,0.03-0.37,0.03c-0.23,0-0.45-0.04-0.65-0.12c-0.2-0.08-0.37-0.19-0.51-0.35c-0.14-0.15-0.26-0.34-0.34-0.57
			c-0.08-0.23-0.12-0.48-0.12-0.78c0-0.24,0.04-0.46,0.11-0.66c0.07-0.21,0.18-0.38,0.31-0.53c0.14-0.15,0.3-0.27,0.5-0.35
			c0.2-0.09,0.42-0.13,0.66-0.13c0.2,0,0.39,0.03,0.56,0.1c0.17,0.07,0.32,0.17,0.45,0.29c0.13,0.13,0.22,0.29,0.3,0.48
			s0.11,0.4,0.11,0.64c0,0.09-0.01,0.16-0.03,0.19c-0.02,0.03-0.06,0.05-0.11,0.05h-2.26c0.01,0.21,0.04,0.4,0.09,0.56
			c0.05,0.16,0.13,0.29,0.22,0.4c0.09,0.11,0.21,0.19,0.33,0.24c0.13,0.05,0.27,0.08,0.43,0.08c0.15,0,0.28-0.02,0.39-0.05
			c0.11-0.03,0.2-0.07,0.28-0.11c0.08-0.04,0.14-0.08,0.2-0.11c0.05-0.03,0.1-0.05,0.14-0.05c0.05,0,0.09,0.02,0.11,0.06
			L146.92,52.88z M146.43,51.29c0-0.14-0.02-0.26-0.06-0.38c-0.04-0.11-0.1-0.21-0.17-0.3c-0.08-0.08-0.17-0.15-0.27-0.19
			c-0.11-0.05-0.23-0.07-0.36-0.07c-0.29,0-0.51,0.08-0.68,0.25c-0.17,0.17-0.27,0.4-0.31,0.69H146.43z"/>
		<path class="st9" d="M148.26,50.64c0.11-0.23,0.24-0.41,0.39-0.54c0.16-0.13,0.35-0.2,0.57-0.2c0.07,0,0.14,0.01,0.21,0.02
			s0.12,0.04,0.18,0.07l-0.04,0.44c-0.01,0.06-0.05,0.08-0.1,0.08c-0.03,0-0.08-0.01-0.14-0.02c-0.06-0.01-0.13-0.02-0.2-0.02
			c-0.11,0-0.2,0.02-0.29,0.05c-0.08,0.03-0.16,0.08-0.22,0.14c-0.07,0.06-0.13,0.14-0.18,0.23s-0.1,0.19-0.14,0.31v2.14h-0.6v-3.39
			h0.34c0.06,0,0.11,0.01,0.13,0.04c0.02,0.02,0.04,0.07,0.05,0.13L148.26,50.64z"/>
		<path class="st9" d="M149.99,50.44c0.19-0.18,0.39-0.32,0.61-0.4c0.22-0.09,0.46-0.13,0.72-0.13c0.19,0,0.36,0.03,0.51,0.09
			c0.15,0.06,0.27,0.15,0.37,0.26c0.1,0.11,0.18,0.25,0.23,0.41c0.05,0.16,0.08,0.33,0.08,0.52v2.17h-0.26
			c-0.06,0-0.1-0.01-0.13-0.03c-0.03-0.02-0.06-0.06-0.07-0.11l-0.07-0.32c-0.09,0.08-0.18,0.16-0.26,0.22
			c-0.08,0.06-0.17,0.12-0.27,0.16c-0.09,0.04-0.19,0.08-0.3,0.1c-0.11,0.02-0.22,0.03-0.35,0.03c-0.13,0-0.26-0.02-0.37-0.05
			c-0.12-0.04-0.22-0.09-0.3-0.17c-0.09-0.07-0.15-0.17-0.2-0.28c-0.05-0.11-0.08-0.25-0.08-0.4c0-0.13,0.04-0.26,0.11-0.39
			c0.07-0.12,0.19-0.23,0.36-0.33s0.38-0.17,0.65-0.24c0.27-0.06,0.59-0.1,0.98-0.11v-0.26c0-0.26-0.06-0.46-0.17-0.6
			c-0.11-0.13-0.28-0.2-0.5-0.2c-0.15,0-0.27,0.02-0.37,0.06c-0.1,0.04-0.19,0.08-0.26,0.12c-0.07,0.05-0.13,0.09-0.19,0.12
			c-0.05,0.04-0.1,0.05-0.16,0.05c-0.04,0-0.08-0.01-0.1-0.03c-0.03-0.02-0.05-0.05-0.07-0.08L149.99,50.44z M151.92,51.83
			c-0.27,0.01-0.51,0.03-0.7,0.06c-0.19,0.03-0.35,0.08-0.47,0.14c-0.12,0.06-0.21,0.12-0.26,0.2c-0.05,0.08-0.08,0.16-0.08,0.25
			c0,0.09,0.01,0.17,0.04,0.23c0.03,0.06,0.07,0.12,0.12,0.16c0.05,0.04,0.11,0.07,0.18,0.09c0.07,0.02,0.14,0.03,0.22,0.03
			c0.1,0,0.2-0.01,0.29-0.03s0.17-0.05,0.25-0.09c0.08-0.04,0.15-0.09,0.22-0.14c0.07-0.06,0.14-0.12,0.21-0.19V51.83z"/>
		<path class="st9" d="M155.76,50.56c-0.02,0.03-0.04,0.04-0.05,0.06c-0.02,0.01-0.04,0.02-0.07,0.02c-0.03,0-0.07-0.01-0.11-0.04
			s-0.09-0.06-0.15-0.09c-0.06-0.03-0.13-0.06-0.22-0.09c-0.09-0.03-0.19-0.04-0.32-0.04c-0.17,0-0.31,0.03-0.44,0.09
			c-0.13,0.06-0.23,0.14-0.32,0.26c-0.09,0.11-0.15,0.25-0.19,0.4c-0.04,0.16-0.07,0.34-0.07,0.53c0,0.21,0.02,0.39,0.07,0.55
			c0.05,0.16,0.11,0.29,0.2,0.4c0.09,0.11,0.19,0.19,0.31,0.25c0.12,0.06,0.26,0.08,0.41,0.08c0.14,0,0.26-0.02,0.36-0.05
			c0.09-0.03,0.17-0.07,0.23-0.12c0.06-0.04,0.11-0.08,0.15-0.12c0.04-0.03,0.08-0.05,0.12-0.05c0.05,0,0.09,0.02,0.11,0.06
			l0.17,0.22c-0.07,0.09-0.16,0.17-0.25,0.23c-0.09,0.06-0.19,0.12-0.3,0.16c-0.11,0.04-0.22,0.08-0.34,0.1
			c-0.12,0.02-0.24,0.03-0.36,0.03c-0.21,0-0.41-0.04-0.59-0.12c-0.18-0.08-0.34-0.19-0.47-0.34c-0.13-0.15-0.24-0.33-0.31-0.55
			c-0.08-0.22-0.11-0.46-0.11-0.74c0-0.25,0.04-0.49,0.11-0.7c0.07-0.21,0.17-0.4,0.31-0.55c0.14-0.16,0.3-0.28,0.5-0.36
			c0.2-0.09,0.42-0.13,0.68-0.13c0.24,0,0.45,0.04,0.63,0.12c0.18,0.08,0.34,0.19,0.48,0.33L155.76,50.56z"/>
		<path class="st9" d="M157.23,49.96v3.64c0,0.14-0.02,0.26-0.05,0.38c-0.04,0.12-0.09,0.22-0.17,0.31
			c-0.08,0.09-0.18,0.16-0.3,0.21c-0.12,0.05-0.27,0.08-0.44,0.08c-0.07,0-0.14-0.01-0.2-0.02c-0.06-0.01-0.12-0.03-0.18-0.05
			l0.02-0.32c0-0.02,0.01-0.04,0.02-0.05c0.01-0.01,0.02-0.02,0.04-0.02c0.02,0,0.04,0,0.07,0c0.03,0,0.06,0,0.11,0
			c0.17,0,0.3-0.04,0.37-0.12c0.07-0.08,0.11-0.21,0.11-0.39v-3.64H157.23z M157.35,48.9c0,0.06-0.01,0.11-0.04,0.16
			c-0.02,0.05-0.05,0.09-0.09,0.13c-0.04,0.04-0.08,0.07-0.14,0.09c-0.05,0.02-0.11,0.03-0.16,0.03c-0.06,0-0.11-0.01-0.16-0.03
			c-0.05-0.02-0.09-0.05-0.13-0.09c-0.04-0.04-0.07-0.08-0.09-0.13c-0.02-0.05-0.03-0.1-0.03-0.16c0-0.06,0.01-0.11,0.03-0.17
			c0.02-0.05,0.05-0.1,0.09-0.14c0.04-0.04,0.08-0.07,0.13-0.09c0.05-0.02,0.1-0.03,0.16-0.03c0.06,0,0.11,0.01,0.16,0.03
			c0.05,0.02,0.1,0.05,0.14,0.09c0.04,0.04,0.07,0.08,0.09,0.14C157.34,48.79,157.35,48.84,157.35,48.9z"/>
		<path class="st9" d="M158.12,50.44c0.19-0.18,0.39-0.32,0.61-0.4c0.22-0.09,0.46-0.13,0.72-0.13c0.19,0,0.36,0.03,0.51,0.09
			c0.15,0.06,0.27,0.15,0.37,0.26c0.1,0.11,0.18,0.25,0.23,0.41c0.05,0.16,0.08,0.33,0.08,0.52v2.17h-0.26
			c-0.06,0-0.1-0.01-0.13-0.03c-0.03-0.02-0.06-0.06-0.07-0.11l-0.07-0.32c-0.09,0.08-0.18,0.16-0.26,0.22
			c-0.08,0.06-0.17,0.12-0.27,0.16c-0.09,0.04-0.19,0.08-0.3,0.1c-0.11,0.02-0.22,0.03-0.35,0.03c-0.13,0-0.26-0.02-0.37-0.05
			c-0.12-0.04-0.22-0.09-0.3-0.17c-0.09-0.07-0.15-0.17-0.2-0.28c-0.05-0.11-0.08-0.25-0.08-0.4c0-0.13,0.04-0.26,0.11-0.39
			c0.07-0.12,0.19-0.23,0.36-0.33s0.38-0.17,0.65-0.24c0.27-0.06,0.59-0.1,0.98-0.11v-0.26c0-0.26-0.06-0.46-0.17-0.6
			c-0.11-0.13-0.28-0.2-0.5-0.2c-0.15,0-0.27,0.02-0.37,0.06c-0.1,0.04-0.19,0.08-0.26,0.12c-0.07,0.05-0.13,0.09-0.19,0.12
			c-0.05,0.04-0.1,0.05-0.16,0.05c-0.04,0-0.08-0.01-0.1-0.03c-0.03-0.02-0.05-0.05-0.07-0.08L158.12,50.44z M160.04,51.83
			c-0.27,0.01-0.51,0.03-0.7,0.06c-0.19,0.03-0.35,0.08-0.47,0.14c-0.12,0.06-0.21,0.12-0.26,0.2c-0.05,0.08-0.08,0.16-0.08,0.25
			c0,0.09,0.01,0.17,0.04,0.23c0.03,0.06,0.07,0.12,0.12,0.16c0.05,0.04,0.11,0.07,0.18,0.09c0.07,0.02,0.14,0.03,0.22,0.03
			c0.1,0,0.2-0.01,0.29-0.03s0.17-0.05,0.25-0.09c0.08-0.04,0.15-0.09,0.22-0.14c0.07-0.06,0.14-0.12,0.21-0.19V51.83z"/>
	</g>
</g>
</svg>
