<?xml version="1.0" encoding="utf-8"?>
<!-- Generator: Adobe Illustrator 23.0.3, SVG Export Plug-In . SVG Version: 6.00 Build 0)  -->
<svg version="1.1" id="Warstwa_1" xmlns="http://www.w3.org/2000/svg" xmlns:xlink="http://www.w3.org/1999/xlink" x="0px" y="0px"
	 viewBox="0 0 24 24" style="enable-background:new 0 0 24 24;" xml:space="preserve">
<style type="text/css">
	.st0{opacity:0.81;fill:#11B4BD;}
	.st1{opacity:0.15;fill:#11B4BD;}
	.st2{opacity:0.66;}
	.st3{fill:#FFFFFF;}
	.st4{fill:#C8D86C;}
	.st5{fill:#6BAD2E;}
	.st6{fill:#11B4BD;}
	.st7{fill:#009EE2;}
	.st8{fill:#059898;}
	.st9{fill:#004995;}
	.st10{fill:none;stroke:#004995;stroke-miterlimit:10;}
	.st11{opacity:0.49;fill:#545454;}
	.st12{fill:none;stroke:#004995;stroke-width:2;stroke-miterlimit:10;}
	.st13{fill:#EFEFEF;}
	.st14{fill:none;}
	.st15{fill:#545454;}
	.st16{fill:none;stroke:#004995;stroke-width:1.5;stroke-miterlimit:10;}
	.st17{fill:#004995;stroke:#545454;stroke-miterlimit:10;}
	.st18{fill:none;stroke:#545454;stroke-width:2;stroke-miterlimit:10;}
</style>
<g id="_x31_2_5_">
	<g id="_x38__6_">
		<path class="st16" d="M7.47,9.3c-0.5-0.79-0.41-1.01-0.41-1.01l1.48-2.15c0.4-0.53,0.34-1.28-0.13-1.75L5.34,1.35
			C4.9,0.91,4.19,0.86,3.69,1.25L2.36,2.28c-0.11,0.09-0.22,0.19-0.3,0.31c-2.63,3.67,1.06,9.44,5.6,13.96
			c4.42,4.4,10.4,8.31,14.01,5.51c0.1-0.08,0.19-0.17,0.27-0.28l1.04-1.36c0.38-0.5,0.34-1.21-0.11-1.65l-3.06-3.05
			c-0.47-0.47-1.22-0.52-1.75-0.12l-2.14,1.49c0,0-0.86,0.31-5.01-3.82C9.43,11.8,8.51,10.75,7.95,10C7.75,9.73,7.59,9.5,7.47,9.3"
			/>
	</g>
	<path class="st16" d="M19.02,11.21c0-0.89-0.19-1.79-0.61-2.65c-1.04-2.14-3.17-3.4-5.39-3.43"/>
	<path class="st16" d="M22.51,11.21c0-1.4-0.31-2.82-0.96-4.17c-1.64-3.39-5.02-5.37-8.54-5.4"/>
	<path class="st16" d="M21.56,7.04c-1.19-2.77-4.93-5.25-8.54-5.4"/>
</g>
</svg>
